<svg width="24" height="24" fill="none" xmlns="http://www.w3.org/2000/svg"><path d="M5.5 21c-.4 0-.75-.135-1.05-.405-.3-.27-.45-.585-.45-.945V7.95c0-.36.15-.675.45-.945.3-.27.65-.405 1.05-.405h2.75v-.225c0-.945.363-1.744 1.088-2.396C10.063 3.326 10.95 3 12 3c1.05 0 1.938.326 2.662.979.725.652 1.088 1.451 1.088 2.396V6.6h2.75c.4 0 .75.135 1.05.405.3.27.45.585.45.945v11.7c0 .36-.15.675-.45.945-.3.27-.65.405-1.05.405h-13zm0-1.35h13V7.95h-2.75v2.025a.62.62 0 0 1-.217.48.776.776 0 0 1-.537.195.76.76 0 0 1-.534-.194.625.625 0 0 1-.212-.481V7.95h-4.5v2.025a.62.62 0 0 1-.217.48.776.776 0 0 1-.537.195.76.76 0 0 1-.534-.194.625.625 0 0 1-.212-.481V7.95H5.5v11.7zM9.75 6.6h4.5v-.225c0-.57-.217-1.05-.65-1.44-.433-.39-.967-.585-1.6-.585-.633 0-1.167.195-1.6.585-.433.39-.65.87-.65 1.44V6.6z" fill="#101010"/></svg>