<svg width="24" height="24" viewBox="0 0 24 24" fill="none" xmlns="http://www.w3.org/2000/svg">
<path d="M5.5 21C5.1 21 4.75 20.865 4.45 20.595C4.15 20.325 4 20.01 4 19.65V7.95C4 7.59 4.15 7.275 4.45 7.005C4.75 6.735 5.1 6.6 5.5 6.6H8.25V6.375C8.25 5.43 8.6125 4.63125 9.3375 3.97875C10.0625 3.32625 10.95 3 12 3C13.05 3 13.9375 3.32625 14.6625 3.97875C15.3875 4.63125 15.75 5.43 15.75 6.375V6.6H18.5C18.9 6.6 19.25 6.735 19.55 7.005C19.85 7.275 20 7.59 20 7.95V19.65C20 20.01 19.85 20.325 19.55 20.595C19.25 20.865 18.9 21 18.5 21H5.5ZM5.5 19.65H18.5V7.95H15.75V9.975C15.75 10.1663 15.6777 10.3266 15.5331 10.4559C15.3885 10.5853 15.2094 10.65 14.9956 10.65C14.7819 10.65 14.6042 10.5853 14.4625 10.4559C14.3208 10.3266 14.25 10.1663 14.25 9.975V7.95H9.75V9.975C9.75 10.1663 9.67771 10.3266 9.53313 10.4559C9.38853 10.5853 9.20936 10.65 8.99563 10.65C8.78188 10.65 8.60417 10.5853 8.4625 10.4559C8.32083 10.3266 8.25 10.1663 8.25 9.975V7.95H5.5V19.65ZM9.75 6.6H14.25V6.375C14.25 5.805 14.0333 5.325 13.6 4.935C13.1667 4.545 12.6333 4.35 12 4.35C11.3667 4.35 10.8333 4.545 10.4 4.935C9.96667 5.325 9.75 5.805 9.75 6.375V6.6Z" fill="#101010"/>
</svg>
