<svg width="81" height="80" fill="none" xmlns="http://www.w3.org/2000/svg"><path d="M20.192 53H16.5V19h32v34H38.346M48.5 29h15.565v11.1H75.5V53h-3.177" stroke="#636363" stroke-width="2" stroke-linecap="round"/><path d="M23.5 54.136C23.5 50.75 25 48 29.5 48s6 2.75 6 6.136C35.5 56.25 34 60 29.5 60c-4.25 0-6-3.25-6-5.864zM55.5 54.136C55.5 50.75 57 48 61.5 48s6 2.75 6 6.136C67.5 56.25 66 60 61.5 60c-4.25 0-6-3.25-6-5.864zM5.5 28h20M12.5 33h10" stroke="#636363" stroke-width="2" stroke-linecap="round"/></svg>