<svg width="81" height="80" viewBox="0 0 81 80" fill="none" xmlns="http://www.w3.org/2000/svg">
<path d="M20.1923 53H16.5V19H48.5V53H38.3462" stroke="#636363" stroke-width="2" stroke-linecap="round"/>
<path d="M48.5 29H64.0647V40.1H75.5V53H72.3235" stroke="#636363" stroke-width="2" stroke-linecap="round"/>
<path d="M23.5 54.1365C23.5 50.75 25 48 29.5 48C34 48 35.5 50.75 35.5 54.1365C35.5 56.25 34 60 29.5 60C25.25 60 23.5 56.75 23.5 54.1365Z" stroke="#636363" stroke-width="2" stroke-linecap="round"/>
<path d="M55.5 54.1365C55.5 50.75 57 48 61.5 48C66 48 67.5 50.75 67.5 54.1365C67.5 56.25 66 60 61.5 60C57.25 60 55.5 56.75 55.5 54.1365Z" stroke="#636363" stroke-width="2" stroke-linecap="round"/>
<path d="M5.5 28L25.5 28" stroke="#636363" stroke-width="2" stroke-linecap="round"/>
<path d="M12.5 33L22.5 33" stroke="#636363" stroke-width="2" stroke-linecap="round"/>
</svg>
