<svg width="81" height="80" fill="none" xmlns="http://www.w3.org/2000/svg"><path d="M31.14 42.638H14.5v21.478h19.017M15.391 51.304h18.126M21.928 44.522v6.782M19.254 43.014v6.03M51.643 14H34.409l1.511 38.435h14.816L51.643 14zM49.563 56.203h-12.48V66h12.48v-9.797zM55.803 23.797H66.5v40.319H52.534M66.5 36.609H54.317M59.963 26.811v9.798M57.586 24.174v9.42" stroke="#636363" stroke-width="2" stroke-linecap="round"/><path d="M43.523 25.304c-.936 1.587-2.949 7.537-.561 7.537 2.246 0 .842-5.553.561-7.537zM60.163 45.652c-.936 1.587-2.949 7.536-.561 7.536 2.246 0 .842-5.553.561-7.536zM24.679 54.696c-.702 1.269-2.212 6.029-.421 6.029 1.684 0 .632-4.443.421-6.03z" stroke="#636363" stroke-width="2" stroke-linecap="round"/></svg>