<svg width="81" height="80" viewBox="0 0 81 80" fill="none" xmlns="http://www.w3.org/2000/svg">
<path d="M31.14 42.6377H14.5V64.116H33.5171" stroke="#636363" stroke-width="2" stroke-linecap="round"/>
<path d="M15.3914 51.3044H33.5171" stroke="#636363" stroke-width="2" stroke-linecap="round"/>
<path d="M21.9285 44.5217V51.3043" stroke="#636363" stroke-width="2" stroke-linecap="round"/>
<path d="M19.2544 43.0144V49.0434" stroke="#636363" stroke-width="2" stroke-linecap="round"/>
<path d="M51.643 14H34.4087L35.9205 52.4348H50.7359L51.643 14Z" stroke="#636363" stroke-width="2" stroke-linecap="round"/>
<path d="M49.5628 56.2029H37.0828V66H49.5628V56.2029Z" stroke="#636363" stroke-width="2" stroke-linecap="round"/>
<path d="M55.8028 23.7971H66.4999V64.116H52.5342" stroke="#636363" stroke-width="2" stroke-linecap="round"/>
<path d="M66.5 36.6086H54.3171" stroke="#636363" stroke-width="2" stroke-linecap="round"/>
<path d="M59.9629 26.8115V36.6086" stroke="#636363" stroke-width="2" stroke-linecap="round"/>
<path d="M57.5857 24.1738V33.5941" stroke="#636363" stroke-width="2" stroke-linecap="round"/>
<path d="M43.5235 25.3044C42.5875 26.891 40.5742 32.8407 42.9619 32.8407C45.2081 32.8407 43.8041 27.2877 43.5235 25.3044Z" stroke="#636363" stroke-width="2" stroke-linecap="round"/>
<path d="M60.1633 45.6521C59.2274 47.2387 57.2141 53.1883 59.6018 53.1883C61.848 53.1883 60.444 47.6353 60.1633 45.6521Z" stroke="#636363" stroke-width="2" stroke-linecap="round"/>
<path d="M24.679 54.6956C23.9771 55.9648 22.4671 60.7245 24.2579 60.7245C25.9425 60.7245 24.8895 56.2821 24.679 54.6956Z" stroke="#636363" stroke-width="2" stroke-linecap="round"/>
</svg>
