<svg width="81" height="80" fill="none" xmlns="http://www.w3.org/2000/svg"><path d="M30.5 65c0 2.968-.4 10.162-2 11M51.5 11.742c0-2.409 1.505-6.813 7.526-5.161.358-.516.968-1.755.538-2.581 4.48 3.957 10.751 12.697 0 16" stroke="#636363" stroke-width="2" stroke-linecap="round"/><path d="M41.428 61.39c-6.145 3.328-19.068 5.78-21.596-11.033-2.107-10.158-3.266-31.945 8.954-37.83 9.482-4.028 29.287-6.2 32.658 17.339.527 7.88-2.634 22.592-11.061 28.897-.527 3.853-.633 12.295 3.16 15.237" stroke="#636363" stroke-width="2" stroke-linecap="round"/><path d="M41.692 22c-.694 5.46 4.837 23.96 22.943 22.961M41.5 22c-4.507 4.28-16.016 12.428-26 10.784" stroke="#636363" stroke-width="2" stroke-linecap="round"/></svg>