<svg width="81" height="80" viewBox="0 0 81 80" fill="none" xmlns="http://www.w3.org/2000/svg">
<path d="M30.5 65C30.5 67.9683 30.1 75.1619 28.5 76" stroke="#636363" stroke-width="2" stroke-linecap="round"/>
<path d="M51.5 11.742C51.5 9.33336 53.0052 4.92905 59.026 6.58067C59.3844 6.06453 59.9936 4.82581 59.5636 4C64.0433 7.95699 70.315 16.6968 59.5636 20" stroke="#636363" stroke-width="2" stroke-linecap="round"/>
<path d="M41.4281 61.3903C35.2828 64.7179 22.3601 67.1698 19.8318 50.3567C17.7248 40.1988 16.566 18.4119 28.7863 12.5273C38.2676 8.49921 58.073 6.32753 61.4441 29.8658C61.9709 37.7468 58.8104 52.4583 50.3826 58.7632C49.8559 62.6162 49.7505 71.0577 53.543 74" stroke="#636363" stroke-width="2" stroke-linecap="round"/>
<path d="M41.6924 22C40.9975 27.4608 46.5288 45.9594 64.6353 44.9611" stroke="#636363" stroke-width="2" stroke-linecap="round"/>
<path d="M41.5 22C36.9933 26.2795 25.484 34.4276 15.5 32.7843" stroke="#636363" stroke-width="2" stroke-linecap="round"/>
</svg>
