<svg width="24" height="24" viewBox="0 0 24 24" fill="none" xmlns="http://www.w3.org/2000/svg">
<path d="M12 21L10.975 20.0914C9.2122 18.5014 7.75483 17.1299 6.6029 15.9767C5.45097 14.8235 4.53333 13.7926 3.85 12.884C3.16667 11.9754 2.6875 11.1528 2.4125 10.4161C2.1375 9.6794 2 8.93452 2 8.18145C2 6.70551 2.50417 5.47296 3.5125 4.48378C4.52083 3.49459 5.76667 3 7.25 3C8.2 3 9.07917 3.22101 9.8875 3.66303C10.6958 4.10505 11.4 4.74352 12 5.57844C12.7 4.69441 13.4417 4.04366 14.225 3.62619C15.0083 3.20873 15.85 3 16.75 3C18.2333 3 19.4792 3.49459 20.4875 4.48378C21.4958 5.47296 22 6.70551 22 8.18145C22 8.93452 21.8625 9.6794 21.5875 10.4161C21.3125 11.1528 20.8333 11.9754 20.15 12.884C19.4667 13.7926 18.549 14.8235 17.3971 15.9767C16.2452 17.1299 14.7878 18.5014 13.025 20.0914L12 21ZM12 19.06C13.6873 17.5376 15.0758 16.232 16.1655 15.1433C17.2551 14.0546 18.1208 13.101 18.7625 12.2824C19.4042 11.4638 19.8542 10.7342 20.1125 10.0935C20.3708 9.45285 20.5 8.81667 20.5 8.18501C20.5 7.10214 20.15 6.21282 19.45 5.51705C18.75 4.82128 17.8519 4.4734 16.7556 4.4734C15.8969 4.4734 15.1021 4.73124 14.3712 5.24693C13.6404 5.76262 13.05 6.48704 12.6 7.42019H11.375C10.9417 6.50341 10.3596 5.78308 9.62875 5.25921C8.8979 4.73533 8.10311 4.4734 7.24437 4.4734C6.14812 4.4734 5.25 4.82128 4.55 5.51705C3.85 6.21282 3.5 7.10354 3.5 8.18921C3.5 8.8225 3.62917 9.46248 3.8875 10.1091C4.14583 10.7558 4.59583 11.4925 5.2375 12.3192C5.87917 13.146 6.75 14.0996 7.85 15.1801C8.95 16.2606 10.3333 17.5539 12 19.06Z" fill="#101010"/>
</svg>
