<svg width="24" height="24" fill="none" xmlns="http://www.w3.org/2000/svg"><path d="m12 21-1.025-.909c-1.763-1.59-3.22-2.961-4.372-4.114-1.152-1.154-2.07-2.184-2.753-3.093-.683-.909-1.163-1.731-1.438-2.468A6.346 6.346 0 0 1 2 8.181c0-1.475.504-2.708 1.513-3.697C4.52 3.494 5.767 3 7.25 3c.95 0 1.83.221 2.637.663.809.442 1.513 1.08 2.113 1.915.7-.884 1.442-1.534 2.225-1.952A5.288 5.288 0 0 1 16.75 3c1.483 0 2.73.495 3.738 1.484S22 6.706 22 8.18c0 .754-.137 1.498-.413 2.235-.274.737-.754 1.56-1.437 2.468-.683.909-1.601 1.94-2.753 3.093-1.152 1.153-2.61 2.524-4.372 4.114L12 21zm0-1.94c1.687-1.522 3.076-2.828 4.166-3.917 1.09-1.088 1.955-2.042 2.596-2.86.642-.82 1.092-1.549 1.35-2.19.259-.64.388-1.276.388-1.908 0-1.083-.35-1.972-1.05-2.668-.7-.696-1.598-1.044-2.694-1.044-.86 0-1.654.258-2.385.774-.73.516-1.321 1.24-1.771 2.173h-1.225c-.433-.917-1.015-1.637-1.746-2.16-.731-.525-1.526-.787-2.385-.787-1.096 0-1.994.348-2.694 1.044-.7.696-1.05 1.587-1.05 2.672 0 .633.13 1.273.388 1.92s.708 1.383 1.35 2.21c.641.827 1.512 1.78 2.612 2.861 1.1 1.08 2.483 2.374 4.15 3.88z" fill="#101010"/></svg>