<svg width="24" height="25" fill="none" xmlns="http://www.w3.org/2000/svg"><g clip-path="url(#a)"><path d="M20.75 4.915H3.25c-.332 0-.65.14-.884.39A1.38 1.38 0 0 0 2 6.249v13.334c0 .353.132.692.366.942.235.25.552.391.884.391h17.5c.331 0 .65-.14.884-.39.234-.25.366-.59.366-.943V6.248a1.38 1.38 0 0 0-.366-.942 1.212 1.212 0 0 0-.884-.391zm-.962 14.667h-15.5L9.5 13.415l-1-1-5.25 6.393V7.262l7.769 8.246c.234.249.55.388.881.388.33 0 .647-.14.881-.388l7.969-8.453v11.667L15.146 13l-.897.952 5.539 5.63zM4.068 6.248h15.67L11.9 14.562 4.069 6.248z" fill="#fff"/></g><defs><clipPath id="a"><path fill="#fff" transform="translate(0 .915)" d="M0 0h24v24H0z"/></clipPath></defs></svg>