<svg width="24" height="25" viewBox="0 0 24 25" fill="none" xmlns="http://www.w3.org/2000/svg">
<g clip-path="url(#clip0_125_31)">
<path d="M20.75 4.91504H3.25C2.91848 4.91504 2.60054 5.05551 2.36612 5.30556C2.1317 5.55561 2 5.89475 2 6.24837V19.5817C2 19.9353 2.1317 20.2745 2.36612 20.5245C2.60054 20.7746 2.91848 20.915 3.25 20.915H20.75C21.0815 20.915 21.3995 20.7746 21.6339 20.5245C21.8683 20.2745 22 19.9353 22 19.5817V6.24837C22 5.89475 21.8683 5.55561 21.6339 5.30556C21.3995 5.05551 21.0815 4.91504 20.75 4.91504ZM19.7875 19.5817H4.2875L9.5 13.415L8.5 12.415L3.25 18.8084V7.26171L11.0188 15.5084C11.253 15.7567 11.5698 15.8961 11.9 15.8961C12.2302 15.8961 12.547 15.7567 12.7812 15.5084L20.75 7.05504V18.7217L15.1455 13.0004L14.2487 13.9517L19.7875 19.5817ZM4.06875 6.24837H19.7375L11.9 14.5617L4.06875 6.24837Z" fill="white"/>
</g>
<defs>
<clipPath id="clip0_125_31">
<rect width="24" height="24" fill="white" transform="translate(0 0.915039)"/>
</clipPath>
</defs>
</svg>
