<svg width="24" height="25" viewBox="0 0 24 25" fill="none" xmlns="http://www.w3.org/2000/svg">
<path d="M20.2282 16.2485L15.8897 14.3042C15.6932 14.22 15.4787 14.1861 15.2657 14.2057C15.0528 14.2253 14.848 14.2977 14.6701 14.4163C14.652 14.4279 14.6348 14.4408 14.6187 14.4549L12.3511 16.3835C12.3276 16.3963 12.3014 16.4035 12.2746 16.4045C12.2479 16.4054 12.2212 16.4001 12.1968 16.389C10.7394 15.6855 9.22951 14.1848 8.52326 12.7476C8.5115 12.7235 8.50538 12.6971 8.50538 12.6704C8.50538 12.6437 8.5115 12.6173 8.52326 12.5933L10.4583 10.2973C10.4722 10.2803 10.4851 10.2625 10.4969 10.244C10.6139 10.0654 10.6846 9.86042 10.7025 9.64765C10.7205 9.43488 10.6852 9.22098 10.5998 9.02527L8.66928 4.6941C8.55965 4.43842 8.37006 4.2252 8.12895 4.08643C7.88785 3.94766 7.60824 3.89084 7.3321 3.92448C6.13196 4.08225 5.03033 4.67163 4.23307 5.58247C3.43582 6.4933 2.99749 7.66327 3.00001 8.87374C3.00001 16.0648 8.85021 21.915 16.0413 21.915C17.2517 21.9173 18.4215 21.479 19.3323 20.6817C20.2431 19.8845 20.8325 18.783 20.9905 17.5829C21.0241 17.3081 20.968 17.0297 20.8307 16.7893C20.6933 16.5489 20.482 16.3592 20.2282 16.2485ZM16.0413 20.8129C9.45819 20.8129 4.10209 15.4568 4.10209 8.87374C4.09902 7.93139 4.43914 7.02017 5.05892 6.31031C5.67869 5.60045 6.53571 5.14052 7.46985 5.01646H7.49098C7.52799 5.01715 7.56393 5.029 7.59408 5.05047C7.62423 5.07194 7.6472 5.10202 7.65996 5.13677L9.59778 9.46335C9.60884 9.48741 9.61456 9.51357 9.61456 9.54004C9.61456 9.56651 9.60884 9.59267 9.59778 9.61672L7.65905 11.9182C7.64458 11.9347 7.63138 11.9522 7.61955 11.9706C7.49824 12.1558 7.4268 12.3692 7.41216 12.5901C7.39752 12.811 7.44017 13.032 7.53598 13.2316C8.3506 14.8994 10.0313 16.5672 11.7174 17.3818C11.9182 17.4771 12.1402 17.5187 12.3619 17.5026C12.5835 17.4865 12.7972 17.4133 12.9821 17.29C12.9995 17.278 13.017 17.2652 13.0335 17.2514L15.3001 15.3227C15.3225 15.3107 15.3472 15.3037 15.3726 15.3021C15.3979 15.3005 15.4234 15.3044 15.4471 15.3136L19.7865 17.2578C19.8219 17.2729 19.8517 17.2988 19.8717 17.3317C19.8916 17.3647 19.9007 17.4031 19.8976 17.4415C19.7742 18.3761 19.3147 19.2337 18.605 19.8542C17.8953 20.4747 16.9839 20.8155 16.0413 20.8129Z" fill="white"/>
</svg>
