<svg width="24" height="25" fill="none" xmlns="http://www.w3.org/2000/svg"><path d="m20.228 16.248-4.338-1.944a1.285 1.285 0 0 0-1.271.15l-2.268 1.93a.174.174 0 0 1-.154.005c-1.458-.704-2.967-2.204-3.674-3.641a.176.176 0 0 1 0-.155l1.935-2.296a1.285 1.285 0 0 0 .142-1.272l-1.93-4.33a1.286 1.286 0 0 0-1.338-.77A4.981 4.981 0 0 0 3 8.873c0 7.19 5.85 13.041 13.041 13.041a4.982 4.982 0 0 0 4.95-4.332 1.286 1.286 0 0 0-.763-1.334zm-4.187 4.565c-6.583 0-11.939-5.356-11.939-11.94A3.878 3.878 0 0 1 7.47 5.017h.021a.184.184 0 0 1 .169.12l1.938 4.327a.184.184 0 0 1 0 .154l-1.939 2.301a.442.442 0 0 0-.04.053 1.286 1.286 0 0 0-.083 1.26c.815 1.668 2.495 3.336 4.181 4.15a1.286 1.286 0 0 0 1.316-.13l2.267-1.928a.177.177 0 0 1 .147-.01l4.34 1.945a.185.185 0 0 1 .11.184 3.88 3.88 0 0 1-3.856 3.37z" fill="#fff"/></svg>