<svg aria-hidden="true" style="position: absolute; width: 0; height: 0; overflow: hidden;" version="1.1" xmlns="http://www.w3.org/2000/svg" xmlns:xlink="http://www.w3.org/1999/xlink">
<defs>
<symbol id="arrow2" viewBox="0 0 82 32">
<path fill="#fff" style="fill: var(--color1, #fff)" d="M81.414 17.414c0.362-0.362 0.586-0.862 0.586-1.414s-0.224-1.052-0.586-1.414l-12.728-12.728c-0.364-0.377-0.874-0.611-1.439-0.611-1.105 0-2 0.895-2 2 0 0.565 0.234 1.074 0.61 1.438l0.001 0.001 11.314 11.314-11.314 11.314c-0.347 0.359-0.561 0.849-0.561 1.389 0 1.105 0.895 2 2 2 0.54 0 1.030-0.214 1.39-0.562l-0.001 0.001 12.728-12.728zM0 18h80v-4h-80v4z"></path>
</symbol>
<symbol id="arrow" viewBox="0 0 32 32">
<path d="M16 14.364l-7.78 7.636-2.22-2.18 10-9.82 10 9.82-2.224 2.18-7.776-7.636z"></path>
</symbol>
<symbol id="bag" viewBox="0 0 32 32">
<path d="M7.333 28c-0.533 0-1-0.18-1.4-0.54s-0.6-0.78-0.6-1.26v-15.6c0-0.48 0.2-0.9 0.6-1.26s0.867-0.54 1.4-0.54h3.667v-0.3c0-1.26 0.484-2.325 1.451-3.195 0.967-0.871 2.149-1.305 3.549-1.305s2.584 0.435 3.549 1.305c0.967 0.869 1.451 1.935 1.451 3.195v0.3h3.667c0.533 0 1 0.18 1.4 0.54s0.6 0.78 0.6 1.26v15.6c0 0.48-0.2 0.9-0.6 1.26s-0.867 0.54-1.4 0.54h-17.333zM7.333 26.2h17.333v-15.6h-3.667v2.7c0 0.004 0 0.008 0 0.012 0 0.251-0.112 0.476-0.288 0.627l-0.001 0.001c-0.182 0.162-0.422 0.26-0.686 0.26-0.010 0-0.021-0-0.031-0l0.002 0c-0.010 0-0.023 0.001-0.035 0.001-0.261 0-0.498-0.098-0.678-0.26l0.001 0.001c-0.174-0.153-0.283-0.377-0.283-0.626 0-0.006 0-0.011 0-0.017v0.001-2.7h-6v2.7c0 0.004 0 0.008 0 0.012 0 0.251-0.112 0.476-0.288 0.627l-0.001 0.001c-0.182 0.162-0.422 0.26-0.686 0.26-0.010 0-0.021-0-0.031-0l0.002 0c-0.010 0-0.023 0.001-0.035 0.001-0.261 0-0.498-0.098-0.678-0.26l0.001 0.001c-0.174-0.153-0.283-0.377-0.283-0.626 0-0.006 0-0.011 0-0.017v0.001-2.7h-3.667v15.6zM13 8.8h6v-0.3c0-0.76-0.289-1.4-0.867-1.92s-1.289-0.78-2.133-0.78c-0.844 0-1.556 0.26-2.133 0.78s-0.867 1.16-0.867 1.92v0.3z"></path>
</symbol>
<symbol id="car" viewBox="0 0 32 32">
<path fill="none" stroke="#636363" style="stroke: var(--color2, #636363)" stroke-linejoin="miter" stroke-linecap="round" stroke-miterlimit="4" stroke-width="0.8" d="M8.077 21.2h-1.477v-13.6h12.8v13.6h-4.062M19.4 11.6h6.226v4.44h4.574v5.16h-1.271"></path>
<path fill="none" stroke="#636363" style="stroke: var(--color2, #636363)" stroke-linejoin="miter" stroke-linecap="round" stroke-miterlimit="4" stroke-width="0.8" d="M9.4 21.654c0-1.354 0.6-2.454 2.4-2.454s2.4 1.1 2.4 2.454c0 0.846-0.6 2.346-2.4 2.346-1.7 0-2.4-1.3-2.4-2.346zM22.2 21.654c0-1.354 0.6-2.454 2.4-2.454s2.4 1.1 2.4 2.454c0 0.846-0.6 2.346-2.4 2.346-1.7 0-2.4-1.3-2.4-2.346zM2.2 11.2h8M5 13.2h4"></path>
</symbol>
<symbol id="close" viewBox="0 0 32 32">
<path d="M8.533 25.333l-1.867-1.867 7.467-7.467-7.467-7.467 1.867-1.867 7.467 7.467 7.467-7.467 1.867 1.867-7.467 7.467 7.467 7.467-1.867 1.867-7.467-7.467-7.467 7.467z"></path>
</symbol>
<symbol id="cosmetics" viewBox="0 0 32 32">
<path fill="none" stroke="#636363" style="stroke: var(--color2, #636363)" stroke-linejoin="miter" stroke-linecap="round" stroke-miterlimit="4" stroke-width="0.8" d="M12.456 17.055h-6.656v8.591h7.607M6.156 20.522h7.25M8.771 17.809v2.713M7.702 17.206v2.412M20.657 5.6h-6.894l0.604 15.374h5.926l0.363-15.374zM19.825 22.481h-4.992v3.919h4.992v-3.919zM22.321 9.519h4.279v16.128h-5.586M26.6 14.644h-4.873M23.985 10.724v3.919M23.034 9.67v3.768"></path>
<path fill="none" stroke="#636363" style="stroke: var(--color2, #636363)" stroke-linejoin="miter" stroke-linecap="round" stroke-miterlimit="4" stroke-width="0.8" d="M17.409 10.122c-0.374 0.635-1.18 3.015-0.224 3.015 0.898 0 0.337-2.221 0.224-3.015zM24.065 18.261c-0.374 0.635-1.18 3.014-0.224 3.014 0.898 0 0.337-2.221 0.224-3.014zM9.872 21.878c-0.281 0.508-0.885 2.412-0.168 2.412 0.674 0 0.253-1.777 0.168-2.412z"></path>
</symbol>
<symbol id="face" viewBox="0 0 32 32">
<path fill="none" stroke="#636363" style="stroke: var(--color2, #636363)" stroke-linejoin="miter" stroke-linecap="round" stroke-miterlimit="4" stroke-width="0.8" d="M12.2 26c0 1.187-0.16 4.065-0.8 4.4M20.6 4.697c0-0.964 0.602-2.725 3.010-2.064 0.143-0.206 0.387-0.702 0.215-1.032 1.792 1.583 4.3 5.079 0 6.4"></path>
<path fill="none" stroke="#636363" style="stroke: var(--color2, #636363)" stroke-linejoin="miter" stroke-linecap="round" stroke-miterlimit="4" stroke-width="0.8" d="M16.571 24.556c-2.458 1.331-7.627 2.312-8.638-4.413-0.843-4.063-1.306-12.778 3.582-15.132 3.793-1.611 11.715-2.48 13.063 6.936 0.211 3.152-1.054 9.037-4.424 11.559-0.211 1.541-0.253 4.918 1.264 6.095"></path>
<path fill="none" stroke="#636363" style="stroke: var(--color2, #636363)" stroke-linejoin="miter" stroke-linecap="round" stroke-miterlimit="4" stroke-width="0.8" d="M16.677 8.8c-0.278 2.184 1.935 9.584 9.177 9.184M16.6 8.8c-1.803 1.712-6.406 4.971-10.4 4.314"></path>
</symbol>
<symbol id="favourite" viewBox="0 0 32 32">
<path d="M16 28l-1.367-1.212c-2.351-2.12-4.293-3.948-5.829-5.485-1.536-1.539-2.76-2.912-3.671-4.124s-1.551-2.308-1.917-3.291c-0.345-0.884-0.547-1.908-0.549-2.979v-0.001c0-1.967 0.672-3.611 2.017-4.929 1.343-1.32 3.005-1.979 4.983-1.979 1.267 0 2.44 0.295 3.516 0.884 1.079 0.589 2.017 1.44 2.817 2.553 0.933-1.179 1.923-2.045 2.967-2.603 0.963-0.526 2.109-0.835 3.328-0.835 0.014 0 0.027 0 0.041 0h-0.002c1.977 0 3.64 0.66 4.984 1.979s2.016 2.963 2.016 4.928c0 1.005-0.183 1.997-0.551 2.98-0.365 0.983-1.005 2.080-1.916 3.291-0.911 1.212-2.135 2.587-3.671 4.124s-3.48 3.365-5.829 5.485l-1.367 1.213zM16 25.413c2.249-2.029 4.101-3.771 5.555-5.223 1.453-1.451 2.607-2.723 3.461-3.813 0.856-1.093 1.456-2.065 1.8-2.92 0.345-0.853 0.517-1.701 0.517-2.544 0-1.444-0.467-2.629-1.4-3.557s-2.131-1.392-3.592-1.392c-1.147 0-2.205 0.344-3.18 1.032-0.973 0.688-1.761 1.653-2.361 2.897h-1.633c-0.577-1.223-1.353-2.183-2.328-2.88-0.975-0.7-2.035-1.049-3.18-1.049-1.461 0-2.659 0.464-3.592 1.392s-1.4 2.116-1.4 3.563c0 0.844 0.173 1.697 0.517 2.56s0.944 1.844 1.8 2.947c0.855 1.103 2.016 2.373 3.483 3.815 1.467 1.44 3.311 3.165 5.533 5.173z"></path>
</symbol>
<symbol id="instagram" viewBox="0 0 32 32">
<g clip-path="url(#a)" fill="#000"><path d="M12 8a4 4 0 1 0 0 8 4 4 0 0 0 0-8z"/><path fill-rule="evenodd" clip-rule="evenodd" d="M7.2 0A7.2 7.2 0 0 0 0 7.2v9.6A7.2 7.2 0 0 0 7.2 24h9.6a7.2 7.2 0 0 0 7.2-7.2V7.2A7.2 7.2 0 0 0 16.8 0H7.2zm-.8 12a5.6 5.6 0 1 1 11.2 0 5.6 5.6 0 0 1-11.2 0zm11.2-5.6h1.6V4.8h-1.6v1.6z"/></g><defs><clipPath id="a"><path fill="#fff" d="M0 0h24v24H0z"/></clipPath></defs>
</symbol>
<symbol id="mail" viewBox="0 0 31 32">
<path fill="#fff" style="fill: var(--color1, #fff)" d="M26.56 6.291h-22.4c-0.425 0-0.832 0.179-1.132 0.499-0.29 0.314-0.469 0.735-0.469 1.198 0 0.004 0 0.007 0 0.011v-0.001 17.068c0 0.452 0.169 0.886 0.468 1.206 0.301 0.32 0.707 0.5 1.132 0.5h22.4c0.424 0 0.832-0.179 1.132-0.499s0.468-0.755 0.468-1.207v-17.069c0-0.002 0-0.005 0-0.008 0-0.463-0.178-0.884-0.47-1.199l0.001 0.001c-0.282-0.306-0.684-0.498-1.131-0.5h-0.001zM25.329 25.065h-19.84l6.671-7.894-1.28-1.28-6.72 8.183v-14.779l9.944 10.555c0.3 0.319 0.704 0.497 1.128 0.497 0.422 0 0.828-0.179 1.128-0.497l10.2-10.82v14.934l-7.173-7.324-1.148 1.219 7.090 7.206zM5.207 7.997h20.058l-10.033 10.642-10.024-10.642z"></path>
</symbol>
<symbol id="order" viewBox="0 0 32 32">
<path fill="none" stroke="#636363" style="stroke: var(--color2, #636363)" stroke-linejoin="miter" stroke-linecap="round" stroke-miterlimit="4" stroke-width="0.8" d="M7.803 11.972v-7.572h18.197v23.2h-18.197v-8.7M11.738 4.4v2.578h10v-2.578M9.115 13.583v-7.653h2.459M21.984 6.011h2.705v19.978h-15.574v-5.236M12.066 10.2h9.836M12.066 12.294h6.885M12.066 14.066h9.18M8.459 14.872l-1.476 1.289M12.721 18.9l-1.475 1.45M6 15.275l1.476-1.369 5.409 4.994 0.82 2.417-2.459-0.886-5.246-5.156z"></path>
</symbol>
<symbol id="phone" viewBox="0 0 31 32">
<path fill="#fff" style="fill: var(--color1, #fff)" d="M25.892 20.797l-5.553-2.488c-0.191-0.084-0.413-0.132-0.646-0.132-0.369 0-0.71 0.122-0.985 0.327l0.004-0.003-2.903 2.47c-0.030 0.017-0.067 0.026-0.105 0.026-0.033 0-0.065-0.007-0.093-0.020l0.001 0.001c-1.866-0.901-3.798-2.821-4.703-4.66-0.015-0.029-0.023-0.063-0.023-0.099s0.008-0.070 0.024-0.101l-0.001 0.001 2.477-2.939c0.199-0.269 0.318-0.607 0.318-0.972 0-0.237-0.050-0.463-0.141-0.666l0.004 0.011-2.47-5.542c-0.258-0.592-0.838-0.998-1.513-0.998-0.070 0-0.14 0.004-0.208 0.013l0.008-0.001c-3.146 0.425-5.545 3.093-5.545 6.321 0 0.004 0 0.008 0 0.013v-0.001c0 9.203 7.488 16.692 16.692 16.692 0.004 0 0.009 0 0.014 0 3.229 0 5.897-2.399 6.319-5.512l0.004-0.033c0.008-0.060 0.012-0.128 0.012-0.198 0-0.671-0.402-1.249-0.978-1.505l-0.010-0.004zM20.532 26.641c-8.426 0-15.282-6.856-15.282-15.283 0-0.004-0-0.010-0-0.015 0-2.511 1.865-4.587 4.285-4.918l0.026-0.003h0.027c0.099 0.002 0.183 0.065 0.216 0.152l0.001 0.002 2.481 5.539c0.014 0.029 0.022 0.063 0.022 0.099s-0.008 0.070-0.022 0.1l0.001-0.001-2.482 2.945c-0.018 0.020-0.035 0.042-0.050 0.066l-0.001 0.002c-0.168 0.254-0.268 0.566-0.268 0.901 0 0.259 0.060 0.504 0.166 0.722l-0.004-0.010c1.043 2.135 3.194 4.27 5.352 5.312 0.206 0.1 0.448 0.158 0.703 0.158 0.37 0 0.711-0.122 0.985-0.327l-0.004 0.003 2.902-2.468c0.031-0.017 0.068-0.027 0.108-0.027 0.029 0 0.056 0.005 0.082 0.015l-0.002-0.001 5.555 2.49c0.084 0.038 0.142 0.12 0.142 0.217 0 0.007-0 0.013-0.001 0.020l0-0.001c-0.334 2.448-2.411 4.314-4.923 4.314-0.004 0-0.009 0-0.013-0h0.001z"></path>
</symbol>
<symbol id="search" viewBox="0 0 32 32">
<path d="M26.533 27.967l-8.767-8.767c-0.667 0.577-1.444 1.027-2.332 1.349-0.828 0.307-1.785 0.484-2.784 0.484-0.018 0-0.036-0-0.054-0h0.003c-2.404 0-4.437-0.833-6.103-2.5s-2.497-3.677-2.497-6.033c0-2.356 0.833-4.367 2.5-6.033s3.684-2.5 6.049-2.5c2.367 0 4.379 0.833 6.033 2.5 1.657 1.667 2.484 3.68 2.484 6.039 0 0.952-0.156 1.872-0.467 2.761-0.345 0.959-0.819 1.787-1.412 2.515l0.012-0.015 8.8 8.733-1.467 1.467zM12.567 19.033c1.805 0 3.34-0.64 4.604-1.917s1.896-2.815 1.896-4.615-0.632-3.339-1.896-4.616c-1.264-1.279-2.799-1.917-4.604-1.917-1.824 0-3.373 0.64-4.652 1.917-1.275 1.275-1.915 2.815-1.915 4.615s0.639 3.339 1.915 4.617c1.277 1.277 2.828 1.916 4.652 1.916z"></path>
</symbol>
<symbol id="star" viewBox="0 0 32 32">
<path fill="#dfdfdf" style="fill: var(--color3, #dfdfdf)" d="M16.206 23.055l8.005 4.831-2.124-9.106 7.072-6.126-9.313-0.79-3.64-8.588-3.639 8.588-9.314 0.79 7.072 6.126-2.124 9.106 8.005-4.831z"></path>
</symbol>
<symbol id="close" viewBox="0 0 32 32">
<path d="M8.533 25.333l-1.867-1.867 7.467-7.467-7.467-7.467 1.867-1.867 7.467 7.467 7.467-7.467 1.867 1.867-7.467 7.467 7.467 7.467-1.867 1.867-7.467-7.467-7.467 7.467z"></path>
</symbol>
</defs>
</svg>
